<?xml version="1.0" encoding="utf-8"?>
<!-- Generator: Adobe Illustrator 15.0.0, SVG Export Plug-In . SVG Version: 6.00 Build 0)  -->
<!DOCTYPE svg PUBLIC "-//W3C//DTD SVG 1.1//EN" "http://www.w3.org/Graphics/SVG/1.1/DTD/svg11.dtd">
<svg version="1.1" id="Calque_1" xmlns="http://www.w3.org/2000/svg" xmlns:xlink="http://www.w3.org/1999/xlink" x="0px" y="0px"
	 width="2834.646px" height="846.526px" viewBox="0 0 2834.646 846.526" enable-background="new 0 0 2834.646 846.526"
	 xml:space="preserve">
<path fill="#141414" d="M498.878,298.874v-73.733H180.869v73.733h117.636v320.26h83.863v-320.26H498.878z"/>
<path fill="#141414" d="M532.39,619.134h83.864V481.237c12.945,0.563,29.831,0.563,41.651,0.563c4.502,0,14.07,0,18.573-0.563
	c65.291,109.192,123.264,143.526,178.985,143.526c8.443,0,14.635-1.125,19.7-1.688l-0.563-79.924c-2.252,0-6.755,0.563-8.443,0.563
	c-26.454,0-60.787-20.825-101.313-87.804c52.908-11.82,85.553-47.279,85.553-115.947c0-86.115-48.968-120.449-171.105-120.449
	c-38.836,0-84.99,1.688-146.903,5.066V619.134z M616.254,423.826V287.055c30.394-2.251,40.525-2.251,65.29-2.251
	c63.039,0,82.176,18.574,82.176,66.416c0,54.596-26.453,74.296-89.492,74.296C655.653,425.515,639.894,424.952,616.254,423.826z"/>
<path fill="#141414" d="M1977.127,620.26h81.051V383.864l161.537,240.898h75.421V226.267h-81.05v245.964l-160.975-247.09h-75.984
	V620.26z"/>
<path fill="#141414" d="M2647.776,298.661v-73.733h-318.009v73.733h117.635v320.26h83.865v-320.26H2647.776z"/>
<linearGradient id="SVGID_1_" gradientUnits="userSpaceOnUse" x1="1074.6982" y1="627.0142" x2="1074.6982" y2="225.1411">
	<stop  offset="0" style="stop-color:#476BFF"/>
	<stop  offset="0.5091" style="stop-color:#737DB5"/>
	<stop  offset="1" style="stop-color:#3D58FF"/>
</linearGradient>
<path fill="url(#SVGID_1_)" d="M965.225,225.141h30.395v271.855c0,45.591,32.645,60.788,79.361,60.788
	c46.716,0,79.361-15.197,79.361-60.788V225.141h30.394v272.981c0,55.159-36.022,82.739-109.755,82.739
	c-73.733,0-109.756-28.705-109.756-83.301V225.141z M942.148,225.141v271.292c0,51.219,21.388,107.504,131.706,107.504
	s133.395-55.722,133.395-106.941V225.141h30.394V493.62c0,96.247-68.104,133.395-164.351,133.395S911.755,590.429,911.755,493.62
	V225.141H942.148z"/>
<linearGradient id="SVGID_2_" gradientUnits="userSpaceOnUse" x1="1287.2607" y1="422.1377" x2="1559.6787" y2="422.1377">
	<stop  offset="0" style="stop-color:#476BFF"/>
	<stop  offset="0.5091" style="stop-color:#737DB5"/>
	<stop  offset="1" style="stop-color:#3D58FF"/>
</linearGradient>
<path fill="url(#SVGID_2_)" d="M1318.217,619.134h-30.956V225.141h272.418v25.328h-241.462V619.134z M1534.913,431.144h-194.182
	V274.672h218.947v23.077h-187.991v111.444h163.226V431.144z M1371.688,619.134h-30.956V456.472h194.182v22.514h-163.226V619.134z"/>
<linearGradient id="SVGID_3_" gradientUnits="userSpaceOnUse" x1="1573.127" y1="422.1377" x2="1929.9736" y2="422.1377">
	<stop  offset="0" style="stop-color:#476BFF"/>
	<stop  offset="0.5091" style="stop-color:#737DB5"/>
	<stop  offset="1" style="stop-color:#3D58FF"/>
</linearGradient>
<path fill="url(#SVGID_3_)" d="M1751.55,624.763c112.57,0,178.424-49.53,178.424-203.75c0-151.406-63.604-201.5-178.424-201.5
	s-178.423,50.657-178.423,202.625C1573.127,574.106,1638.98,624.763,1751.55,624.763L1751.55,624.763z M1751.55,558.347
	c-52.908,0-92.307-28.142-92.307-136.208c0-108.63,38.837-136.772,92.307-136.772c54.596,0,92.307,28.705,92.307,136.772
	C1843.856,529.642,1806.146,558.347,1751.55,558.347L1751.55,558.347z M1751.55,240.338c104.689,0,148.028,47.842,148.028,180.675
	c0,132.832-54.596,180.11-149.154,180.11c-94.558,0-146.902-47.279-146.902-178.985
	C1603.521,290.431,1655.866,240.338,1751.55,240.338L1751.55,240.338z M1751.55,261.164c-77.673,0-122.701,43.339-122.701,160.975
	c0,117.634,45.028,159.285,122.701,159.285s122.701-40.525,122.701-159.285C1874.251,303.377,1829.223,261.164,1751.55,261.164z"/>
</svg>
